<?xml version="1.0" encoding="UTF-8"?>
<svg width="256" height="256" viewBox="0 0 256 256" fill="none" xmlns="http://www.w3.org/2000/svg">
  <path d="M226.667 0H29.3333C13.1733 0 0 13.1733 0 29.3333V226.667C0 242.827 13.1733 256 29.3333 256H226.667C242.827 256 256 242.827 256 226.667V29.3333C256 13.1733 242.827 0 226.667 0Z" fill="#E87511"/>
  <path d="M128 42.6667C80.7467 42.6667 42.6667 80.7467 42.6667 128C42.6667 175.253 80.7467 213.333 128 213.333C175.253 213.333 213.333 175.253 213.333 128C213.333 80.7467 175.253 42.6667 128 42.6667ZM128 192C92.3467 192 64 163.653 64 128C64 92.3467 92.3467 64 128 64C163.653 64 192 92.3467 192 128C192 163.653 163.653 192 128 192Z" fill="white"/>
  <path d="M128 85.3333C104.213 85.3333 85.3333 104.213 85.3333 128C85.3333 151.787 104.213 170.667 128 170.667C151.787 170.667 170.667 151.787 170.667 128C170.667 104.213 151.787 85.3333 128 85.3333Z" fill="white"/>
</svg>
