<?xml version="1.0" encoding="UTF-8"?>
<svg width="256" height="256" viewBox="0 0 256 256" fill="none" xmlns="http://www.w3.org/2000/svg">
  <path d="M226.666 0H29.3333C13.1733 0 0 13.1733 0 29.3333V226.667C0 242.827 13.1733 256 29.3333 256H226.666C242.826 256 256 242.827 256 226.667V29.3333C256 13.1733 242.826 0 226.666 0Z" fill="#E72429"/>
  <path d="M209.92 186.667H46.08C41.8133 186.667 38.4 183.253 38.4 179.013V76.9867C38.4 72.72 41.8133 69.3333 46.08 69.3333H209.92C214.187 69.3333 217.6 72.72 217.6 76.9867V179.013C217.6 183.253 214.187 186.667 209.92 186.667Z" fill="white"/>
  <path d="M128 69.3333L166.4 128L128 186.667L89.6 128L128 69.3333Z" fill="#E72429"/>
</svg>
